<!DOCTYPE svg PUBLIC "-//W3C//DTD SVG 20010904//EN" "http://www.w3.org/TR/2001/REC-SVG-20010904/DTD/svg10.dtd">
<svg version="1.0" xmlns="http://www.w3.org/2000/svg" width="640px" height="201px" viewBox="0 0 6400 2010" preserveAspectRatio="xMidYMid meet">
<g id="layer101" fill="#ff6100" stroke="none">
 <path d="M2840 1575 l0 -385 50 0 c28 0 50 4 50 9 0 6 29 -4 66 -21 60 -28 71 -30 152 -26 131 7 217 60 271 170 27 53 31 72 31 143 0 102 -27 162 -105 234 -65 58 -124 81 -215 81 -77 0 -121 -12 -167 -47 l-33 -24 0 125 0 126 -50 0 -50 0 0 -385z m412 74 c104 -53 140 -205 72 -302 -56 -80 -142 -112 -232 -88 -98 26 -152 98 -152 205 0 39 6 79 14 95 21 39 90 99 123 107 16 3 33 7 38 9 20 8 101 -7 137 -26z"/>
 <path d="M391 1760 c-109 -58 -169 -148 -178 -262 -7 -92 23 -166 96 -239 67 -66 124 -89 221 -89 268 0 404 336 212 528 -95 95 -241 120 -351 62z"/>
 <path d="M1263 1756 c-114 -53 -183 -160 -183 -283 0 -89 23 -145 85 -212 63 -67 128 -95 225 -95 89 0 142 21 209 81 47 41 48 57 5 67 -20 5 -33 0 -64 -28 -116 -105 -315 -56 -378 94 -20 49 -18 139 6 191 24 53 74 102 126 124 85 36 217 10 265 -51 17 -21 22 -23 50 -13 17 6 31 15 31 19 0 19 -104 99 -147 114 -71 24 -167 21 -230 -8z"/>
 <path d="M3979 1767 c-95 -36 -165 -105 -200 -196 -28 -74 -23 -176 12 -245 31 -63 115 -140 175 -160 93 -32 223 -16 295 34 22 16 27 18 23 6 -5 -13 3 -16 50 -16 l56 0 0 291 0 290 -52 -3 c-50 -3 -53 -5 -53 -29 l1 -27 -55 31 c-46 26 -67 31 -135 34 -51 2 -94 -2 -117 -10z m208 -123 c65 -38 93 -93 93 -187 0 -70 -2 -79 -33 -118 -42 -56 -83 -79 -151 -86 -47 -5 -64 -2 -112 22 -137 67 -162 239 -50 343 25 23 55 44 68 46 13 3 32 7 43 10 36 8 99 -6 142 -30z"/>
 <path d="M5392 1759 c-64 -25 -139 -96 -172 -164 -36 -76 -35 -190 3 -267 30 -61 93 -124 155 -154 23 -12 67 -20 119 -22 71 -3 89 -1 135 21 104 47 168 131 184 240 l6 47 -261 0 -261 0 0 30 c0 62 62 146 125 170 81 31 196 5 244 -56 21 -27 22 -27 68 -13 26 8 48 20 50 26 8 22 -106 121 -163 143 -71 26 -161 26 -232 -1z m267 -443 c-94 -90 -218 -87 -308 8 l-35 36 195 0 194 0 -46 -44z"/>
 <path d="M1710 1490 l0 -280 30 0 c29 0 30 2 30 42 l0 42 33 -31 c33 -32 68 -53 86 -53 6 0 17 12 24 27 14 26 14 27 -25 46 -21 11 -50 35 -65 53 -45 59 -52 97 -53 272 l0 162 -30 0 -30 0 0 -280z"/>
 <path d="M1980 1490 l0 -280 30 0 c21 0 30 5 30 17 0 15 1 15 18 0 30 -28 89 -47 143 -47 99 0 184 70 209 170 6 27 10 119 8 230 l-3 185 -32 3 -33 3 0 -208 c0 -190 -2 -211 -20 -241 -23 -37 -71 -69 -118 -78 -46 -9 -117 20 -147 60 -25 33 -25 34 -25 249 l0 217 -30 0 -30 0 0 -280z"/>
 <path d="M3560 1320 l0 -450 50 0 50 0 0 450 0 450 -50 0 -50 0 0 -450z"/>
 <path d="M4490 1480 l0 -290 43 0 c24 0 59 -7 76 -16 41 -20 109 -13 157 17 l34 21 37 -24 c87 -53 212 -16 254 75 16 37 19 68 19 275 l0 232 -50 0 -50 0 0 -227 c-1 -245 -2 -253 -53 -272 -33 -13 -69 -1 -91 31 -14 19 -16 57 -16 245 l0 223 -50 0 -50 0 0 -228 c0 -224 0 -229 -22 -249 -32 -28 -53 -34 -86 -22 -48 16 -52 41 -52 279 l0 220 -50 0 -50 0 0 -290z"/>
 <path d="M5890 1481 l0 -289 58 -5 c31 -3 83 -11 114 -18 80 -17 151 -1 208 48 74 64 80 86 80 336 l0 217 -49 0 -50 0 -3 -214 -3 -215 -29 -30 c-59 -62 -148 -62 -200 0 l-26 31 0 214 0 214 -50 0 -50 0 0 -289z"/>
 <path d="M160 1374 c-63 -112 -80 -147 -80 -165 0 -10 -4 -21 -10 -24 -16 -10 -12 -141 6 -198 22 -72 55 -157 63 -161 4 -3 7 32 6 77 0 98 15 135 66 160 44 21 90 9 108 -29 17 -38 14 -55 -23 -135 -44 -98 -57 -156 -57 -256 1 -210 100 -385 306 -540 28 -20 52 -41 53 -45 5 -11 35 -10 30 1 -1 4 -28 28 -58 52 -233 188 -264 474 -74 679 107 115 229 136 210 37 -8 -44 -70 -145 -130 -213 -26 -30 -43 -54 -38 -54 4 0 34 14 65 30 87 47 152 112 189 188 29 58 33 76 33 147 0 66 3 82 19 94 10 7 31 34 47 59 47 74 39 126 -33 210 -32 39 -46 40 -54 7 -3 -14 -10 -25 -15 -25 -12 0 -12 -33 0 -45 28 -29 53 -187 32 -199 -11 -7 -51 137 -51 182 0 35 -10 41 -31 15 -19 -23 -129 -73 -160 -73 -25 0 -25 -1 -21 -59 6 -76 -14 -134 -73 -216 -59 -84 -70 -89 -38 -18 29 64 41 177 26 248 -8 35 -14 41 -59 60 -28 11 -62 28 -77 38 -36 23 -36 7 2 -68 l29 -57 -40 38 c-39 38 -88 120 -88 147 0 7 -11 48 -23 92 l-24 78 -33 -59z"/>
 <path d="M1292 1037 c-34 -34 -62 -66 -62 -70 0 -4 14 -7 32 -7 22 0 45 12 79 40 l47 40 50 -40 c34 -27 60 -40 81 -40 17 0 31 4 31 8 0 4 -28 36 -63 70 -53 52 -68 62 -98 62 -29 0 -44 -10 -97 -63z"/>
 </g>
<g id="layer102" fill="#ffffff" stroke="none">
 <path d="M391 1760 c-109 -58 -169 -148 -178 -262 -7 -92 23 -166 96 -239 67 -66 124 -89 221 -89 268 0 404 336 212 528 -95 95 -241 120 -351 62z"/>
 <path d="M1263 1756 c-114 -53 -183 -160 -183 -283 0 -89 23 -145 85 -212 63 -67 128 -95 225 -95 89 0 142 21 209 81 47 41 48 57 5 67 -20 5 -33 0 -64 -28 -116 -105 -315 -56 -378 94 -20 49 -18 139 6 191 24 53 74 102 126 124 85 36 217 10 265 -51 17 -21 22 -23 50 -13 17 6 31 15 31 19 0 19 -104 99 -147 114 -71 24 -167 21 -230 -8z"/>
 <path d="M1710 1490 l0 -280 30 0 c29 0 30 2 30 42 l0 42 33 -31 c33 -32 68 -53 86 -53 6 0 17 12 24 27 14 26 14 27 -25 46 -21 11 -50 35 -65 53 -45 59 -52 97 -53 272 l0 162 -30 0 -30 0 0 -280z"/>
 <path d="M1980 1490 l0 -280 30 0 c21 0 30 5 30 17 0 15 1 15 18 0 30 -28 89 -47 143 -47 99 0 184 70 209 170 6 27 10 119 8 230 l-3 185 -32 3 -33 3 0 -208 c0 -190 -2 -211 -20 -241 -23 -37 -71 -69 -118 -78 -46 -9 -117 20 -147 60 -25 33 -25 34 -25 249 l0 217 -30 0 -30 0 0 -280z"/>
 <path d="M1292 1037 c-34 -34 -62 -66 -62 -70 0 -4 14 -7 32 -7 22 0 45 12 79 40 l47 40 50 -40 c34 -27 60 -40 81 -40 17 0 31 4 31 8 0 4 -28 36 -63 70 -53 52 -68 62 -98 62 -29 0 -44 -10 -97 -63z"/>
 </g>

</svg>